<?xml version="1.0" encoding="utf-8"?>
<!-- Generator: Adobe Illustrator 22.0.1, SVG Export Plug-In . SVG Version: 6.00 Build 0)  -->
<svg version="1.1" id="レイヤー_1" xmlns="http://www.w3.org/2000/svg" xmlns:xlink="http://www.w3.org/1999/xlink" x="0px"
	 y="0px" viewBox="0 0 260 260" style="enable-background:new 0 0 260 260;" xml:space="preserve">
<path d="M198.1,238.2V211l-20.5,27.1H198.1z M229.2,219c-6,0-11.2,6.6-11.2,14.6v0.7c0,7.9,5.3,13.9,11.2,13.9s11.2-6.6,11.2-14.6
	C240.5,225.6,235.2,219,229.2,219z M255.7,0v260H4.3L255.7,0z M209.4,238.2h-6v-37.7l-29.1,39.7h23.8v9.3h6v-9.3h5.3V238.2z
	 M245.8,234.2c0-9.3-7.3-16.5-16.5-16.5c-4.6,0-8.6,2-11.2,4.6c-0.7-11.9,4.6-21.2,13.9-20.5c5.3,1.3,9.9,5.3,10.6,10.6h1.3
	c-1.3-7.3-7.9-12.6-15.2-12.6c-5.3,0-10.6,3.3-13.2,8.6c-2.6,4.6-4,11.9-3.3,24.5c0.7,11.2,7.9,17.2,16.5,17.2
	C238.5,250.7,245.8,243.5,245.8,234.2z"/>
</svg>
